<?xml version="1.0" encoding="UTF-8" standalone="no"?>
<!DOCTYPE svg PUBLIC "-//W3C//DTD SVG 1.1//EN" "http://www.w3.org/Graphics/SVG/1.1/DTD/svg11.dtd">
<svg width="100%" height="100%" viewBox="0 0 900 500" version="1.1" xmlns="http://www.w3.org/2000/svg" xmlns:xlink="http://www.w3.org/1999/xlink" xml:space="preserve" xmlns:serif="http://www.serif.com/" style="fill-rule:evenodd;clip-rule:evenodd;stroke-linejoin:round;stroke-miterlimit:1.41421;" class="mozwebext">
    <g transform="matrix(4.12602,0,0,4.12602,-774.846,-2634.48)">
        <rect x="187.795" y="638.504" width="218.976" height="121.181" style="fill:white;"/>
    </g>
    <g transform="matrix(4.12602,0,0,4.12602,100.876,197.005)">
        <path d="M0,3.039L5.504,3.039C5.853,7.45 7.701,11.764 11.074,15.138C14.473,18.537 18.828,20.385 23.273,20.712L23.273,26.216C17.417,25.881 11.656,23.504 7.182,19.03C2.733,14.581 0.357,8.861 0,3.039M14.966,11.246C12.667,8.947 11.36,6.037 11.028,3.039L16.586,3.039C16.881,4.619 17.635,6.131 18.858,7.354C20.106,8.602 21.656,9.354 23.273,9.635L23.273,15.198C20.24,14.884 17.291,13.57 14.966,11.246M22.75,3.461C21.676,2.387 21.676,0.644 22.75,-0.431C23.825,-1.505 25.567,-1.505 26.642,-0.431C27.717,0.644 27.717,2.387 26.642,3.461C25.567,4.536 23.825,4.536 22.75,3.461M30.535,-4.323C29.328,-5.529 27.84,-6.284 26.282,-6.587L26.282,-12.143C29.258,-11.8 32.144,-10.497 34.427,-8.215C36.735,-5.907 38.044,-2.982 38.37,0.029L32.81,0.029C32.52,-1.565 31.767,-3.09 30.535,-4.323M38.318,-12.107C34.961,-15.465 30.671,-17.313 26.282,-17.674L26.282,-23.177C32.083,-22.807 37.778,-20.431 42.21,-15.999C46.668,-11.541 49.045,-5.805 49.394,0.029L43.89,0.029C43.55,-4.394 41.702,-8.724 38.318,-12.107" style="fill:rgb(0,158,223);fill-rule:nonzero;"/>
    </g>
    <g transform="matrix(4.12602,0,0,4.12602,798.238,358.622)">
        <path d="M0,-52.654C0.431,-53.571 0.647,-54.753 0.647,-56.199C0.647,-57.357 0.487,-58.337 0.167,-59.139C-0.153,-59.941 -0.635,-60.576 -1.279,-61.044C-1.923,-61.511 -2.681,-61.845 -3.552,-62.045C-4.423,-62.244 -5.466,-62.344 -6.68,-62.344L-11.962,-62.344L-11.962,-39.294L-7.764,-39.294L-7.764,-49.818L-5.901,-49.818L-3.149,-39.294L1.064,-39.294L-2.134,-50.652C-1.142,-51.069 -0.431,-51.737 0,-52.654M-3.316,-56.004C-3.316,-54.725 -3.577,-53.822 -4.101,-53.293C-4.625,-52.765 -5.507,-52.501 -6.749,-52.501L-7.764,-52.501L-7.764,-59.452L-6.499,-59.452C-5.285,-59.452 -4.451,-59.185 -3.997,-58.653C-3.543,-58.12 -3.316,-57.237 -3.316,-56.004M-11.526,-1.385C-12.42,-1.385 -13.122,-1.202 -13.635,-0.838C-14.147,-0.474 -14.403,0.023 -14.403,0.653C-14.403,1.006 -14.329,1.309 -14.181,1.563C-14.033,1.817 -13.807,2.044 -13.504,2.243C-13.201,2.443 -12.69,2.677 -11.97,2.945C-11.214,3.237 -10.705,3.489 -10.444,3.703C-10.183,3.917 -10.052,4.174 -10.052,4.475C-10.052,4.875 -10.217,5.172 -10.546,5.367C-10.875,5.562 -11.345,5.66 -11.956,5.66C-12.351,5.66 -12.761,5.606 -13.187,5.498C-13.612,5.39 -14.011,5.241 -14.382,5.053L-14.382,6.139C-13.809,6.464 -13.009,6.626 -11.985,6.626C-11.016,6.626 -10.264,6.431 -9.728,6.041C-9.192,5.65 -8.924,5.096 -8.924,4.376C-8.924,3.864 -9.085,3.439 -9.407,3.1C-9.729,2.762 -10.349,2.426 -11.265,2.092C-11.933,1.843 -12.384,1.652 -12.619,1.52C-12.855,1.389 -13.025,1.25 -13.131,1.105C-13.236,0.959 -13.289,0.783 -13.289,0.576C-13.289,0.27 -13.148,0.03 -12.866,-0.144C-12.584,-0.318 -12.166,-0.405 -11.611,-0.405C-10.981,-0.405 -10.278,-0.245 -9.502,0.075L-9.086,-0.877C-9.881,-1.215 -10.694,-1.385 -11.526,-1.385M-24.099,-39.294L-14.381,-39.294L-14.381,-42.2L-19.9,-42.2L-19.9,-49.804L-15.591,-49.804L-15.591,-52.765L-19.9,-52.765L-19.9,-59.382L-14.451,-59.382L-14.451,-62.344L-24.099,-62.344L-24.099,-39.294ZM-22.121,-0.697C-22.594,-1.146 -23.302,-1.37 -24.247,-1.37C-24.793,-1.37 -25.278,-1.264 -25.703,-1.05C-26.129,-0.836 -26.457,-0.543 -26.687,-0.172L-26.758,-0.172C-26.72,-0.435 -26.701,-0.766 -26.701,-1.166L-26.701,-4.487L-27.872,-4.487L-27.872,6.485L-26.701,6.485L-26.701,2.444C-26.701,1.438 -26.514,0.714 -26.141,0.273C-25.767,-0.169 -25.173,-0.39 -24.36,-0.39C-23.749,-0.39 -23.3,-0.235 -23.013,0.075C-22.727,0.385 -22.583,0.855 -22.583,1.485L-22.583,6.485L-21.413,6.485L-21.413,1.443C-21.413,0.465 -21.649,-0.248 -22.121,-0.697M-29.673,-59.244L-25.933,-59.244L-25.933,-62.344L-37.736,-62.344L-37.736,-59.244L-33.871,-59.244L-33.871,-39.294L-29.673,-39.294L-29.673,-59.244ZM-42.324,-39.294L-39.571,-39.294L-39.571,-62.344L-43.047,-62.344L-43.047,-49.29L-48.691,-62.344L-51.582,-62.344L-51.582,-39.294L-48.023,-39.294L-48.023,-53.015L-42.324,-39.294ZM-48.334,-36.027L-52.866,-26.018L-52.866,-36.027L-57.064,-36.027L-57.064,-12.978L-52.866,-12.978L-52.866,-22.32L-52.032,-23.821L-48.056,-12.978L-43.871,-12.978L-48.737,-25.712L-44.33,-36.027L-48.334,-36.027ZM-63.718,-39.294L-54.001,-39.294L-54.001,-42.2L-59.52,-42.2L-59.52,-49.804L-55.21,-49.804L-55.21,-52.765L-59.52,-52.765L-59.52,-59.382L-54.071,-59.382L-54.071,-62.344L-63.718,-62.344L-63.718,-39.294ZM-62.173,-34.727C-62.817,-35.195 -63.575,-35.529 -64.446,-35.728C-65.317,-35.927 -66.36,-36.027 -67.574,-36.027L-72.856,-36.027L-72.856,-12.978L-68.658,-12.978L-68.658,-23.502L-66.795,-23.502L-64.043,-12.978L-59.831,-12.978L-63.028,-24.336C-62.036,-24.753 -61.325,-25.42 -60.894,-26.337C-60.463,-27.255 -60.248,-28.437 -60.248,-29.882C-60.248,-31.041 -60.408,-32.021 -60.727,-32.823C-61.047,-33.624 -61.529,-34.259 -62.173,-34.727M-64.21,-29.688C-64.21,-28.409 -64.472,-27.505 -64.995,-26.977C-65.519,-26.449 -66.402,-26.185 -67.643,-26.185L-68.658,-26.185L-68.658,-33.135L-67.393,-33.135C-66.179,-33.135 -65.345,-32.869 -64.891,-32.336C-64.437,-31.803 -64.21,-30.92 -64.21,-29.688M-66.805,-43.729C-66.684,-44.415 -66.624,-45.189 -66.624,-46.051L-66.624,-47.941L-70.669,-47.941L-70.669,-45.884C-70.669,-45.513 -70.671,-45.221 -70.676,-45.008C-70.681,-44.795 -70.697,-44.535 -70.725,-44.23C-70.752,-43.924 -70.794,-43.685 -70.85,-43.514C-70.905,-43.342 -70.987,-43.157 -71.093,-42.958C-71.2,-42.758 -71.329,-42.605 -71.482,-42.499C-71.635,-42.392 -71.825,-42.304 -72.052,-42.235C-72.28,-42.165 -72.541,-42.13 -72.838,-42.13C-73.709,-42.13 -74.314,-42.418 -74.652,-42.992C-74.99,-43.567 -75.159,-44.531 -75.159,-45.884L-75.159,-55.643C-75.159,-56.069 -75.152,-56.421 -75.138,-56.699C-75.125,-56.977 -75.092,-57.281 -75.041,-57.61C-74.99,-57.939 -74.914,-58.205 -74.812,-58.409C-74.71,-58.613 -74.575,-58.806 -74.409,-58.986C-74.242,-59.167 -74.026,-59.299 -73.762,-59.382C-73.498,-59.466 -73.19,-59.508 -72.838,-59.508L-72.615,-59.508C-71.679,-59.452 -71.091,-59.035 -70.85,-58.256C-70.729,-57.858 -70.669,-57.084 -70.669,-55.935L-70.669,-53.975L-66.624,-53.975L-66.624,-55.949C-66.624,-57.005 -66.73,-57.93 -66.943,-58.722C-67.157,-59.515 -67.5,-60.207 -67.972,-60.8C-68.445,-61.393 -69.089,-61.843 -69.904,-62.149C-70.72,-62.455 -71.703,-62.608 -72.852,-62.608C-73.852,-62.608 -74.731,-62.487 -75.486,-62.246C-76.242,-62.005 -76.867,-61.672 -77.363,-61.245C-77.859,-60.819 -78.259,-60.274 -78.565,-59.612C-78.871,-58.949 -79.089,-58.231 -79.219,-57.457C-79.349,-56.683 -79.413,-55.796 -79.413,-54.795L-79.413,-46.76C-79.413,-45.814 -79.351,-44.964 -79.226,-44.209C-79.1,-43.453 -78.883,-42.747 -78.572,-42.089C-78.262,-41.431 -77.859,-40.879 -77.363,-40.435C-76.867,-39.99 -76.239,-39.642 -75.479,-39.392C-74.719,-39.142 -73.843,-39.016 -72.852,-39.016C-71.897,-39.016 -71.058,-39.13 -70.336,-39.357C-69.613,-39.584 -69.02,-39.897 -68.556,-40.295C-68.093,-40.694 -67.715,-41.194 -67.423,-41.797C-67.131,-42.399 -66.925,-43.043 -66.805,-43.729M-77.479,-34.386C-78.512,-35.656 -80.21,-36.291 -82.574,-36.291C-83.788,-36.291 -84.826,-36.126 -85.688,-35.798C-86.55,-35.468 -87.238,-34.975 -87.752,-34.317C-88.266,-33.659 -88.639,-32.88 -88.871,-31.982C-89.103,-31.083 -89.219,-30.021 -89.219,-28.798L-89.219,-20.29C-89.219,-17.806 -88.704,-15.92 -87.676,-14.632C-86.647,-13.344 -84.946,-12.7 -82.574,-12.7C-81.369,-12.7 -80.336,-12.871 -79.474,-13.214C-78.612,-13.557 -77.924,-14.064 -77.409,-14.736C-76.895,-15.408 -76.519,-16.201 -76.283,-17.114C-76.047,-18.026 -75.929,-19.085 -75.929,-20.29L-75.929,-28.798C-75.929,-31.254 -76.445,-33.117 -77.479,-34.386M-80.196,-19.303C-80.196,-18.867 -80.213,-18.492 -80.245,-18.177C-80.278,-17.862 -80.342,-17.547 -80.44,-17.232C-80.537,-16.917 -80.672,-16.662 -80.843,-16.467C-81.014,-16.273 -81.244,-16.115 -81.531,-15.995C-81.818,-15.874 -82.166,-15.814 -82.574,-15.814C-82.981,-15.814 -83.331,-15.874 -83.623,-15.995C-83.915,-16.115 -84.144,-16.273 -84.311,-16.467C-84.478,-16.662 -84.61,-16.917 -84.708,-17.232C-84.805,-17.547 -84.87,-17.862 -84.902,-18.177C-84.935,-18.492 -84.951,-18.867 -84.951,-19.303L-84.951,-29.771C-84.951,-30.327 -84.923,-30.79 -84.867,-31.161C-84.812,-31.532 -84.705,-31.882 -84.548,-32.211C-84.39,-32.54 -84.147,-32.785 -83.818,-32.948C-83.489,-33.11 -83.074,-33.191 -82.574,-33.191C-82.073,-33.191 -81.661,-33.11 -81.336,-32.948C-81.012,-32.785 -80.769,-32.54 -80.607,-32.211C-80.444,-31.882 -80.336,-31.532 -80.28,-31.161C-80.224,-30.79 -80.196,-30.327 -80.196,-29.771L-80.196,-19.303ZM-86.726,-39.294L-82.583,-39.294L-82.583,-62.343L-86.726,-62.343L-86.726,-39.294ZM-90.701,-51.09C-89.626,-52.086 -89.089,-53.655 -89.089,-55.796C-89.089,-60.161 -91.054,-62.344 -94.983,-62.344L-101.614,-62.344L-101.614,-39.294L-97.416,-39.294L-97.416,-49.596L-95.247,-49.596C-93.292,-49.596 -91.777,-50.094 -90.701,-51.09M-93.037,-55.824C-93.037,-54.572 -93.245,-53.713 -93.662,-53.245C-94.079,-52.777 -94.881,-52.543 -96.067,-52.543L-97.416,-52.543L-97.416,-59.382L-96.053,-59.382C-95.368,-59.382 -94.823,-59.322 -94.42,-59.202C-94.017,-59.081 -93.713,-58.861 -93.51,-58.541C-93.306,-58.222 -93.176,-57.867 -93.12,-57.478C-93.065,-57.089 -93.037,-56.537 -93.037,-55.824M-99.186,-36.027L-102.008,-36.027L-104.469,-21.166L-106.359,-36.027L-109.891,-36.027L-106.596,-12.978L-103.148,-12.978L-100.562,-28.367L-97.963,-12.978L-94.613,-12.978L-91.318,-36.027L-94.779,-36.027L-96.67,-21.152L-99.186,-36.027ZM-113.75,-39.294L-104.033,-39.294L-104.033,-42.2L-109.552,-42.2L-109.552,-49.804L-105.243,-49.804L-105.243,-52.765L-109.552,-52.765L-109.552,-59.382L-104.103,-59.382L-104.103,-62.344L-113.75,-62.344L-113.75,-39.294ZM-113.609,-16.701C-114.499,-15.81 -114.499,-14.366 -113.609,-13.475C-112.718,-12.584 -111.274,-12.584 -110.383,-13.475C-109.493,-14.366 -109.493,-15.81 -110.383,-16.701C-111.274,-17.591 -112.718,-17.591 -113.609,-16.701M-112.85,-1.286L-114.233,-0.863L-114.233,-0.334L-112.85,-0.334L-112.85,6.485L-111.68,6.485L-111.68,-0.334L-109.712,-0.334L-109.712,-1.244L-111.68,-1.244L-111.68,-1.744C-111.68,-2.393 -111.574,-2.864 -111.363,-3.158C-111.151,-3.452 -110.824,-3.599 -110.382,-3.599C-110.063,-3.599 -109.677,-3.526 -109.226,-3.38L-108.923,-4.318C-109.473,-4.483 -109.952,-4.565 -110.361,-4.565C-112.021,-4.565 -112.85,-3.615 -112.85,-1.716L-112.85,-1.286ZM-107.787,-0.331C-108.418,0.372 -108.732,1.354 -108.732,2.614C-108.732,3.427 -108.587,4.137 -108.295,4.743C-108.004,5.35 -107.59,5.815 -107.054,6.139C-106.518,6.464 -105.905,6.626 -105.214,6.626C-104.095,6.626 -103.218,6.272 -102.583,5.565C-101.949,4.857 -101.631,3.873 -101.631,2.614C-101.631,1.387 -101.95,0.413 -102.587,-0.306C-103.224,-1.025 -104.083,-1.385 -105.164,-1.385C-106.283,-1.385 -107.158,-1.033 -107.787,-0.331M-107.519,2.614C-107.519,1.617 -107.324,0.867 -106.934,0.364C-106.544,-0.139 -105.966,-0.39 -105.199,-0.39C-104.424,-0.39 -103.837,-0.135 -103.44,0.375C-103.043,0.885 -102.844,1.631 -102.844,2.614C-102.844,3.605 -103.043,4.359 -103.44,4.874C-103.837,5.388 -104.419,5.646 -105.185,5.646C-105.952,5.646 -106.532,5.387 -106.927,4.87C-107.322,4.353 -107.519,3.601 -107.519,2.614M-98.613,-1.244L-99.579,-1.244L-99.579,6.485L-98.409,6.485L-98.409,2.338C-98.409,1.582 -98.187,0.949 -97.742,0.442C-97.298,-0.066 -96.764,-0.32 -96.138,-0.32C-95.894,-0.32 -95.612,-0.285 -95.292,-0.214L-95.13,-1.3C-95.402,-1.357 -95.711,-1.385 -96.054,-1.385C-96.538,-1.385 -96.982,-1.248 -97.386,-0.976C-97.791,-0.703 -98.136,-0.315 -98.423,0.188L-98.479,0.188L-98.613,-1.244ZM-89.517,-0.327C-90.081,0.378 -90.363,1.368 -90.363,2.642C-90.363,3.916 -90.082,4.898 -89.52,5.589C-88.959,6.28 -88.172,6.626 -87.161,6.626C-86.085,6.626 -85.276,6.233 -84.736,5.448L-84.672,5.448L-84.517,6.485L-83.565,6.485L-83.565,-4.487L-84.736,-4.487L-84.736,-1.342L-84.708,-0.799L-84.658,-0.242L-84.75,-0.242C-85.309,-1.004 -86.113,-1.385 -87.161,-1.385C-88.168,-1.385 -88.953,-1.032 -89.517,-0.327M-89.15,2.656C-89.15,1.683 -88.968,0.929 -88.604,0.396C-88.239,-0.138 -87.714,-0.405 -87.028,-0.405C-86.228,-0.405 -85.647,-0.171 -85.282,0.297C-84.918,0.765 -84.736,1.547 -84.736,2.642L-84.736,2.889C-84.736,3.857 -84.916,4.559 -85.275,4.994C-85.635,5.428 -86.214,5.646 -87.014,5.646C-87.714,5.646 -88.245,5.394 -88.607,4.891C-88.969,4.388 -89.15,3.643 -89.15,2.656M-80.984,-3.927C-81.116,-3.802 -81.182,-3.606 -81.182,-3.338C-81.182,-3.075 -81.116,-2.878 -80.984,-2.749C-80.853,-2.62 -80.688,-2.555 -80.491,-2.555C-80.303,-2.555 -80.141,-2.62 -80.004,-2.749C-79.868,-2.878 -79.8,-3.075 -79.8,-3.338C-79.8,-3.601 -79.868,-3.796 -80.004,-3.923C-80.141,-4.05 -80.303,-4.114 -80.491,-4.114C-80.688,-4.114 -80.853,-4.051 -80.984,-3.927M-79.913,-1.244L-81.083,-1.244L-81.083,6.485L-79.913,6.485L-79.913,-1.244ZM-77.945,6.577C-78.246,6.92 -78.396,7.326 -78.396,7.796C-78.396,8.483 -78.123,9.014 -77.575,9.39C-77.027,9.766 -76.248,9.954 -75.237,9.954C-73.921,9.954 -72.92,9.73 -72.233,9.281C-71.547,8.832 -71.204,8.18 -71.204,7.324C-71.204,6.652 -71.428,6.139 -71.877,5.787C-72.326,5.434 -72.969,5.258 -73.806,5.258L-75.174,5.258C-75.597,5.258 -75.896,5.207 -76.069,5.106C-76.243,5.005 -76.33,4.849 -76.33,4.637C-76.33,4.238 -76.081,3.906 -75.583,3.643C-75.381,3.681 -75.164,3.7 -74.934,3.7C-74.032,3.7 -73.322,3.474 -72.804,3.023C-72.287,2.571 -72.029,1.967 -72.029,1.21C-72.029,0.877 -72.081,0.577 -72.184,0.311C-72.287,0.046 -72.405,-0.169 -72.537,-0.334L-71.105,-0.503L-71.105,-1.244L-73.778,-1.244C-74.102,-1.338 -74.466,-1.385 -74.871,-1.385C-75.801,-1.385 -76.521,-1.156 -77.028,-0.697C-77.536,-0.239 -77.79,0.413 -77.79,1.26C-77.79,1.767 -77.664,2.219 -77.413,2.614C-77.161,3.008 -76.836,3.288 -76.436,3.453C-76.76,3.65 -76.998,3.855 -77.148,4.066C-77.299,4.278 -77.374,4.525 -77.374,4.807C-77.374,5.056 -77.307,5.274 -77.173,5.462C-77.039,5.65 -76.873,5.789 -76.676,5.878C-77.221,6.001 -77.644,6.233 -77.945,6.577M-76.634,1.231C-76.634,0.649 -76.485,0.209 -76.189,-0.087C-75.893,-0.383 -75.47,-0.531 -74.92,-0.531C-73.764,-0.531 -73.185,0.049 -73.185,1.21C-73.185,2.32 -73.757,2.875 -74.899,2.875C-75.444,2.875 -75.87,2.736 -76.175,2.458C-76.481,2.181 -76.634,1.772 -76.634,1.231M-77.268,7.782C-77.268,7.307 -77.12,6.943 -76.824,6.689C-76.528,6.436 -76.114,6.309 -75.583,6.309L-74.18,6.309C-73.465,6.309 -72.979,6.39 -72.72,6.552C-72.461,6.714 -72.332,7.004 -72.332,7.423C-72.332,7.926 -72.568,8.324 -73.041,8.618C-73.513,8.912 -74.241,9.059 -75.223,9.059C-75.882,9.059 -76.387,8.95 -76.739,8.734C-77.092,8.518 -77.268,8.201 -77.268,7.782M-69.42,-3.927C-69.551,-3.802 -69.617,-3.606 -69.617,-3.338C-69.617,-3.075 -69.551,-2.878 -69.42,-2.749C-69.288,-2.62 -69.124,-2.555 -68.926,-2.555C-68.738,-2.555 -68.576,-2.62 -68.44,-2.749C-68.303,-2.878 -68.235,-3.075 -68.235,-3.338C-68.235,-3.601 -68.303,-3.796 -68.44,-3.923C-68.576,-4.05 -68.738,-4.114 -68.926,-4.114C-69.124,-4.114 -69.288,-4.051 -69.42,-3.927M-68.348,-1.244L-69.519,-1.244L-69.519,6.485L-68.348,6.485L-68.348,-1.244ZM-65.781,-1.385L-66.888,-0.898L-66.888,-0.334L-65.781,-0.334L-65.781,4.264C-65.781,5.839 -65.034,6.626 -63.539,6.626C-63.341,6.626 -63.119,6.606 -62.872,6.566C-62.626,6.526 -62.439,6.475 -62.312,6.414L-62.312,5.519C-62.425,5.552 -62.577,5.584 -62.77,5.614C-62.963,5.645 -63.163,5.66 -63.37,5.66C-63.755,5.66 -64.058,5.535 -64.279,5.286C-64.5,5.037 -64.611,4.68 -64.611,4.214L-64.611,-0.334L-62.368,-0.334L-62.368,-1.244L-64.611,-1.244L-64.611,-3.035L-65.288,-3.035L-65.781,-1.385ZM-61.346,4.348C-61.346,5.077 -61.128,5.639 -60.693,6.034C-60.259,6.428 -59.658,6.626 -58.892,6.626C-58.318,6.626 -57.84,6.54 -57.457,6.369C-57.074,6.197 -56.689,5.869 -56.304,5.385L-56.247,5.385L-56.015,6.485L-55.147,6.485L-55.147,1.21C-55.147,0.308 -55.369,-0.348 -55.814,-0.757C-56.258,-1.166 -56.941,-1.37 -57.862,-1.37C-58.318,-1.37 -58.773,-1.312 -59.227,-1.194C-59.68,-1.077 -60.098,-0.915 -60.478,-0.708L-60.119,0.188C-59.305,-0.207 -58.577,-0.405 -57.933,-0.405C-57.359,-0.405 -56.942,-0.26 -56.681,0.029C-56.42,0.318 -56.29,0.766 -56.29,1.373L-56.29,1.852L-57.601,1.894C-60.098,1.97 -61.346,2.787 -61.346,4.348M-60.119,4.362C-60.119,3.822 -59.913,3.423 -59.502,3.167C-59.09,2.911 -58.419,2.766 -57.488,2.733L-56.318,2.684L-56.318,3.382C-56.318,4.101 -56.526,4.661 -56.942,5.061C-57.358,5.46 -57.93,5.66 -58.659,5.66C-59.12,5.66 -59.478,5.549 -59.734,5.328C-59.991,5.108 -60.119,4.786 -60.119,4.362M-51.565,-4.487L-52.736,-4.487L-52.736,6.485L-51.565,6.485L-51.565,-4.487ZM-44.366,-1.244L-45.331,-1.244L-45.331,6.485L-44.161,6.485L-44.161,2.338C-44.161,1.582 -43.939,0.949 -43.495,0.442C-43.05,-0.066 -42.516,-0.32 -41.89,-0.32C-41.646,-0.32 -41.364,-0.285 -41.044,-0.214L-40.882,-1.3C-41.155,-1.357 -41.463,-1.385 -41.806,-1.385C-42.29,-1.385 -42.734,-1.248 -43.139,-0.976C-43.543,-0.703 -43.888,-0.315 -44.175,0.188L-44.231,0.188L-44.366,-1.244ZM-42.578,-19.734C-42.375,-15.045 -40.243,-12.7 -36.184,-12.7C-34.46,-12.7 -33.068,-13.223 -32.006,-14.271C-30.945,-15.318 -30.415,-16.68 -30.415,-18.358C-30.415,-19.09 -30.503,-19.785 -30.679,-20.443C-30.855,-21.101 -31.112,-21.703 -31.45,-22.25C-31.789,-22.797 -32.143,-23.284 -32.514,-23.71C-32.884,-24.136 -33.32,-24.576 -33.821,-25.031L-36.823,-27.644C-37.444,-28.191 -37.901,-28.703 -38.193,-29.18C-38.484,-29.658 -38.631,-30.267 -38.631,-31.008C-38.631,-31.639 -38.466,-32.141 -38.137,-32.517C-37.808,-32.892 -37.333,-33.098 -36.712,-33.135C-36.351,-33.163 -36.033,-33.112 -35.76,-32.982C-35.487,-32.852 -35.269,-32.679 -35.106,-32.461C-34.944,-32.243 -34.812,-31.958 -34.71,-31.606C-34.608,-31.254 -34.536,-30.906 -34.495,-30.564C-34.453,-30.221 -34.423,-29.817 -34.404,-29.354L-30.818,-30.063C-30.873,-30.786 -30.971,-31.442 -31.11,-32.03C-31.249,-32.619 -31.46,-33.186 -31.742,-33.733C-32.025,-34.28 -32.377,-34.736 -32.799,-35.102C-33.221,-35.468 -33.756,-35.76 -34.404,-35.978C-35.053,-36.196 -35.799,-36.3 -36.643,-36.291C-38.478,-36.272 -39.921,-35.767 -40.973,-34.776C-42.025,-33.784 -42.551,-32.394 -42.551,-30.605C-42.551,-29.345 -42.333,-28.295 -41.897,-27.456C-41.462,-26.618 -40.799,-25.809 -39.909,-25.031L-36.879,-22.403C-36.314,-21.903 -35.878,-21.483 -35.572,-21.145C-35.266,-20.807 -34.998,-20.371 -34.766,-19.839C-34.534,-19.305 -34.418,-18.719 -34.418,-18.08C-34.418,-17.422 -34.573,-16.898 -34.884,-16.509C-35.195,-16.12 -35.669,-15.925 -36.309,-15.925C-37.959,-15.925 -38.83,-17.449 -38.922,-20.499L-42.578,-19.734ZM-39.338,-3.927C-39.469,-3.802 -39.535,-3.606 -39.535,-3.338C-39.535,-3.075 -39.469,-2.878 -39.338,-2.749C-39.206,-2.62 -39.042,-2.555 -38.844,-2.555C-38.656,-2.555 -38.494,-2.62 -38.358,-2.749C-38.221,-2.878 -38.153,-3.075 -38.153,-3.338C-38.153,-3.601 -38.221,-3.796 -38.358,-3.923C-38.494,-4.05 -38.656,-4.114 -38.844,-4.114C-39.042,-4.114 -39.206,-4.051 -39.338,-3.927M-38.266,-1.244L-39.437,-1.244L-39.437,6.485L-38.266,6.485L-38.266,-1.244ZM-36.298,6.577C-36.599,6.92 -36.75,7.326 -36.75,7.796C-36.75,8.483 -36.476,9.014 -35.928,9.39C-35.381,9.766 -34.602,9.954 -33.591,9.954C-32.274,9.954 -31.273,9.73 -30.587,9.281C-29.9,8.832 -29.557,8.18 -29.557,7.324C-29.557,6.652 -29.782,6.139 -30.231,5.787C-30.68,5.434 -31.322,5.258 -32.159,5.258L-33.527,5.258C-33.95,5.258 -34.249,5.207 -34.423,5.106C-34.597,5.005 -34.684,4.849 -34.684,4.637C-34.684,4.238 -34.435,3.906 -33.936,3.643C-33.734,3.681 -33.518,3.7 -33.288,3.7C-32.385,3.7 -31.675,3.474 -31.158,3.023C-30.641,2.571 -30.382,1.967 -30.382,1.21C-30.382,0.877 -30.434,0.577 -30.537,0.311C-30.641,0.046 -30.758,-0.169 -30.89,-0.334L-29.458,-0.503L-29.458,-1.244L-32.131,-1.244C-32.455,-1.338 -32.82,-1.385 -33.224,-1.385C-34.155,-1.385 -34.874,-1.156 -35.382,-0.697C-35.89,-0.239 -36.143,0.413 -36.143,1.26C-36.143,1.767 -36.018,2.219 -35.766,2.614C-35.515,3.008 -35.189,3.288 -34.789,3.453C-35.114,3.65 -35.351,3.855 -35.502,4.066C-35.652,4.278 -35.727,4.525 -35.727,4.807C-35.727,5.056 -35.66,5.274 -35.526,5.462C-35.392,5.65 -35.227,5.789 -35.029,5.878C-35.575,6.001 -35.998,6.233 -36.298,6.577M-34.987,1.231C-34.987,0.649 -34.839,0.209 -34.543,-0.087C-34.246,-0.383 -33.823,-0.531 -33.273,-0.531C-32.117,-0.531 -31.539,0.049 -31.539,1.21C-31.539,2.32 -32.11,2.875 -33.252,2.875C-33.798,2.875 -34.223,2.736 -34.529,2.458C-34.834,2.181 -34.987,1.772 -34.987,1.231M-35.622,7.782C-35.622,7.307 -35.473,6.943 -35.177,6.689C-34.881,6.436 -34.467,6.309 -33.936,6.309L-32.533,6.309C-31.818,6.309 -31.332,6.39 -31.073,6.552C-30.815,6.714 -30.685,7.004 -30.685,7.423C-30.685,7.926 -30.922,8.324 -31.394,8.618C-31.867,8.912 -32.594,9.059 -33.577,9.059C-34.235,9.059 -34.74,8.95 -35.093,8.734C-35.445,8.518 -35.622,8.201 -35.622,7.782M-18.923,-1.385L-20.031,-0.898L-20.031,-0.334L-18.923,-0.334L-18.923,4.264C-18.923,5.839 -18.176,6.626 -16.681,6.626C-16.483,6.626 -16.262,6.606 -16.015,6.566C-15.768,6.526 -15.581,6.475 -15.454,6.414L-15.454,5.519C-15.567,5.552 -15.72,5.584 -15.912,5.614C-16.105,5.645 -16.305,5.66 -16.512,5.66C-16.897,5.66 -17.2,5.535 -17.421,5.286C-17.643,5.037 -17.753,4.68 -17.753,4.214L-17.753,-0.334L-15.511,-0.334L-15.511,-1.244L-17.753,-1.244L-17.753,-3.035L-18.43,-3.035L-18.923,-1.385Z" style="fill:rgb(0,63,85);fill-rule:nonzero;"/>
    </g>
</svg>